M48
;Layer_Color=9474304
;FILE_FORMAT=4:4
METRIC,LZ
;TYPE=PLATED
T1F00S00C0.2000
T2F00S00C1.5000
%
T01
X0008Y0009
Y0011
Y0013
Y0015
Y0017
Y0033
Y0035
Y0037
Y0039
Y0041
X001
Y0039
X0009Y004
Y0038
X001Y0037
Y0035
X0009Y0036
Y0034
X001Y0033
X0013Y00324
Y00348
X0012005Y0037095
X00122Y00385
Y00396
X0012005Y0040905
X00196Y00431
Y0044
Y00449
Y00371
X001975Y003095
X00233Y00324
X00258Y00316
X002575Y002815
X00251Y00282
X00234Y00291
X00241Y00259
Y00243
X00258
Y00259
X0028Y00272
X00305Y00252
X00323Y00246
Y00238
X00323Y00261
Y00269
X00322Y00295
Y00303
X00322Y00324
Y00332
X002955Y00309
X002935Y00362
X00282Y00351
X00281Y00397
X00353Y0037
X00363Y00312
Y00295
X00371Y0028
X00389
X00397Y00295
Y00312
X00389Y0022
X00371
X00363Y00205
Y00188
X00397
Y00205
X00334Y00212
Y00222
X003325Y001955
X00297Y00203
X002955Y00229
X00278Y00221
X00243Y0021
X00232Y00215
X00216Y002375
Y00248
X00215Y00265
X00171Y00244
X00166Y00248
X0013Y0025
Y00286
Y00296
X00148Y00209
Y002
Y00191
X0012005Y0016905
X00122Y00156
Y00145
X0012005Y0013095
X001Y0013
Y0011
X0009Y0012
Y001
X001Y0009
X0009Y0014
X00098Y0015
X0009Y0016
X00098Y0017
X00196Y0015425
X001985Y00188
X00227Y00169
X0025
X00274
X00346Y0013
T02
X0005Y002
Y003
X0045
Y0036
Y002
Y0014
M30
