G04*
G04 #@! TF.GenerationSoftware,Altium Limited,Altium Designer,21.1.1 (26)*
G04*
G04 Layer_Color=8388736*
%FSLAX44Y44*%
%MOMM*%
G71*
G04*
G04 #@! TF.SameCoordinates,2B608519-D33F-45DA-9D82-168DE6A03E0F*
G04*
G04*
G04 #@! TF.FilePolarity,Negative*
G04*
G01*
G75*
%ADD17R,4.0532X5.7032*%
%ADD18R,1.3972X0.7622*%
%ADD19R,1.1032X2.7032*%
%ADD20R,2.7532X3.9532*%
%ADD21C,4.2032*%
D17*
X220250Y370000D02*
D03*
X319750D02*
D03*
X319750Y130000D02*
D03*
X220250D02*
D03*
D18*
X134730Y169050D02*
D03*
Y156350D02*
D03*
Y143650D02*
D03*
Y130950D02*
D03*
X185270Y169050D02*
D03*
Y156350D02*
D03*
Y143650D02*
D03*
Y130950D02*
D03*
X134730Y409050D02*
D03*
Y396350D02*
D03*
Y383650D02*
D03*
Y370950D02*
D03*
X185270Y409050D02*
D03*
Y396350D02*
D03*
Y383650D02*
D03*
Y370950D02*
D03*
D19*
X187500Y200000D02*
D03*
X156500D02*
D03*
Y440000D02*
D03*
X187500D02*
D03*
D20*
X380000Y197000D02*
D03*
Y143000D02*
D03*
Y303000D02*
D03*
Y357000D02*
D03*
D21*
X450000Y200000D02*
D03*
Y140000D02*
D03*
Y360000D02*
D03*
Y300000D02*
D03*
X50000D02*
D03*
Y200000D02*
D03*
M02*
