G04*
G04 #@! TF.GenerationSoftware,Altium Limited,Altium Designer,21.1.1 (26)*
G04*
G04 Layer_Physical_Order=6*
G04 Layer_Color=16711680*
%FSLAX44Y44*%
%MOMM*%
G71*
G04*
G04 #@! TF.SameCoordinates,2B608519-D33F-45DA-9D82-168DE6A03E0F*
G04*
G04*
G04 #@! TF.FilePolarity,Positive*
G04*
G01*
G75*
%ADD10C,0.2000*%
%ADD22C,0.5000*%
%ADD23C,4.0000*%
%ADD24C,0.4500*%
%ADD30C,0.1500*%
%ADD31C,0.3000*%
%ADD32C,0.7000*%
%ADD33R,1.3000X0.7000*%
%ADD34R,0.9000X1.6000*%
%ADD35R,0.9000X1.3000*%
%ADD36R,0.7000X1.3000*%
%ADD37R,3.3000X3.3000*%
%ADD38R,0.6000X0.2300*%
%ADD39R,0.2300X0.6000*%
%ADD40C,0.4000*%
%ADD41C,0.9000*%
G36*
X325000Y321000D02*
X310000D01*
Y335000D01*
X325000D01*
Y321000D01*
D02*
G37*
G36*
X325000Y292000D02*
X310000D01*
Y306000D01*
X325000D01*
Y292000D01*
D02*
G37*
G36*
X326000Y258000D02*
X311000D01*
Y272000D01*
X326000D01*
Y258000D01*
D02*
G37*
G36*
X184000Y240000D02*
X163000D01*
Y254000D01*
X184000D01*
Y240000D01*
D02*
G37*
G36*
X326000Y235000D02*
X311000D01*
Y249000D01*
X326000D01*
Y235000D01*
D02*
G37*
G36*
X337000Y209000D02*
X323000D01*
Y225000D01*
X337000D01*
Y209000D01*
D02*
G37*
D10*
X227000Y226000D02*
X232500D01*
X226000Y281000D02*
X231000D01*
X232500Y279500D01*
Y274000D02*
Y279500D01*
X269000Y283000D02*
Y286000D01*
X267500Y281500D02*
X269000Y283000D01*
X267500Y274000D02*
Y281500D01*
X232000Y215000D02*
X237500Y220500D01*
Y226000D01*
X251000Y282000D02*
X252500Y280500D01*
Y274000D02*
Y280500D01*
X234000Y291000D02*
X237500Y287500D01*
Y274000D02*
Y287500D01*
X274000Y225000D02*
Y232500D01*
Y225000D02*
X278000Y221000D01*
X252500Y217500D02*
Y226000D01*
X250000Y215000D02*
X252500Y217500D01*
X250000Y195500D02*
Y215000D01*
X258000Y289500D02*
X260500D01*
X262500Y287500D01*
Y274000D02*
Y287500D01*
X178500Y285500D02*
Y297000D01*
Y285500D02*
X180500Y283500D01*
Y274000D02*
Y283500D01*
X216000Y237500D02*
X226000D01*
X214500Y232500D02*
X226000D01*
X206000Y224000D02*
X214500Y232500D01*
X200500Y224000D02*
X206000D01*
X181500Y215500D02*
Y224000D01*
X179500Y213500D02*
X181500Y215500D01*
X179500Y201000D02*
Y213500D01*
X199500Y274000D02*
X215000D01*
X221500Y267500D01*
X226000D01*
X215000Y265000D02*
X218000D01*
X220500Y262500D02*
X226000D01*
X218000Y265000D02*
X220500Y262500D01*
X226000Y257500D02*
X239500D01*
X226000Y252500D02*
X234500D01*
X239500Y257500D01*
X241000Y259000D01*
X257500Y219500D02*
Y226000D01*
Y219500D02*
X263000Y214000D01*
X283500Y247500D02*
X287000Y251000D01*
X274000Y247500D02*
X283500D01*
X274000Y267500D02*
Y274000D01*
X211250Y242750D02*
X211500Y242500D01*
X226000D01*
X274000Y237500D02*
X280500D01*
X284250Y233750D01*
Y229000D02*
Y233750D01*
X262500Y222500D02*
Y226000D01*
Y222500D02*
X269000Y216000D01*
X273000D01*
X275000Y214000D01*
X257500Y274000D02*
Y281500D01*
X216500Y247500D02*
X226000D01*
X216000Y248000D02*
X216500Y247500D01*
X274000Y257500D02*
X278500D01*
X285000Y264000D01*
X274000Y262500D02*
X277500D01*
X280000Y265000D01*
Y272000D01*
X280000Y272000D02*
X280000Y272000D01*
X285000Y264000D02*
Y276250D01*
X283250Y278000D02*
X285000Y276250D01*
X283250Y278000D02*
Y281000D01*
X296000Y242500D02*
X296500Y242000D01*
X274000Y242500D02*
X296000D01*
D22*
X250000Y169000D02*
Y176500D01*
X258000Y308500D02*
Y316000D01*
X263000Y214000D02*
X274000Y203000D01*
Y195500D02*
Y203000D01*
X285000Y179000D02*
X287500Y176500D01*
X297000D01*
X274000Y195500D02*
X282500D01*
X285000Y193000D01*
Y179000D02*
Y193000D01*
X297000Y176500D02*
X320000D01*
X320000Y176500D01*
X274000Y169000D02*
Y176500D01*
X297000Y195500D02*
Y203000D01*
X320000Y195500D02*
X332500D01*
X227000Y169000D02*
Y176500D01*
X287000Y251000D02*
X296500Y260500D01*
Y265000D01*
X273500Y374000D02*
X277000D01*
X274000Y274000D02*
Y279500D01*
X273500Y328000D02*
X295500D01*
X273500Y328000D02*
X273500Y328000D01*
X295500Y323500D02*
Y328000D01*
X198500Y247000D02*
X207000D01*
X211250Y242750D01*
X212411D01*
X284250Y220750D02*
X288000Y217000D01*
X295500D01*
X284250Y220750D02*
Y229000D01*
X295500Y217000D02*
Y229000D01*
X130000Y250000D02*
X137500D01*
X275000Y214000D02*
X293500Y195500D01*
X297000D01*
X130000Y348000D02*
X137500D01*
X130000Y324000D02*
X137500D01*
X130000Y296000D02*
X137500D01*
X273500Y351000D02*
X282000D01*
X293500Y352000D02*
Y362000D01*
X295500Y297500D02*
Y299000D01*
X283250Y285250D02*
X295500Y297500D01*
X274000Y279500D02*
X276000Y281500D01*
Y304000D01*
X295500Y323500D01*
Y299000D02*
Y309000D01*
X283250Y281000D02*
Y285250D01*
X133000Y273000D02*
X137500D01*
X130000Y276000D02*
X133000Y273000D01*
X130000Y276000D02*
Y286000D01*
X273500Y397000D02*
X281000D01*
D23*
X450000Y200000D02*
D03*
Y140000D02*
D03*
Y360000D02*
D03*
Y300000D02*
D03*
X50000D02*
D03*
Y200000D02*
D03*
D24*
X353000Y370000D02*
D03*
X257500Y281500D02*
D03*
X251000Y282000D02*
D03*
X233000Y324000D02*
D03*
X234000Y291000D02*
D03*
X196000Y371000D02*
D03*
X197500Y309500D02*
D03*
X215000Y265000D02*
D03*
X216000Y248000D02*
D03*
Y237500D02*
D03*
X198500Y188000D02*
D03*
X196000Y154250D02*
D03*
X120050Y370950D02*
D03*
Y409050D02*
D03*
Y130950D02*
D03*
Y169050D02*
D03*
X232000Y215000D02*
D03*
X130000Y348000D02*
D03*
Y324000D02*
D03*
Y296000D02*
D03*
Y286000D02*
D03*
Y250000D02*
D03*
X227000Y169000D02*
D03*
X250000D02*
D03*
X274000D02*
D03*
X332500Y195500D02*
D03*
X282000Y351000D02*
D03*
X293500Y362000D02*
D03*
X295500Y309000D02*
D03*
X305000Y252000D02*
D03*
X295500Y229000D02*
D03*
X278000Y221000D02*
D03*
X243000Y210000D02*
D03*
X297000Y203000D02*
D03*
X346000Y130000D02*
D03*
X281000Y397000D02*
D03*
X322000Y332000D02*
D03*
X258000Y316000D02*
D03*
X166000Y248000D02*
D03*
X241000Y259000D02*
D03*
X258000D02*
D03*
Y243000D02*
D03*
X241000D02*
D03*
X280000Y272000D02*
D03*
X196000Y449000D02*
D03*
Y440000D02*
D03*
Y431000D02*
D03*
X148000Y209000D02*
D03*
Y200000D02*
D03*
Y191000D02*
D03*
X397000Y312000D02*
D03*
Y295000D02*
D03*
X389000Y280000D02*
D03*
X371000D02*
D03*
X363000Y295000D02*
D03*
Y312000D02*
D03*
X397000Y188000D02*
D03*
Y205000D02*
D03*
X389000Y220000D02*
D03*
X371000D02*
D03*
X363000Y205000D02*
D03*
Y188000D02*
D03*
X322000Y324000D02*
D03*
X322000Y295000D02*
D03*
Y303000D02*
D03*
X323000Y261000D02*
D03*
Y269000D02*
D03*
X323000Y238000D02*
D03*
Y246000D02*
D03*
X334000Y222000D02*
D03*
Y212000D02*
D03*
X171000Y244000D02*
D03*
X122000Y396000D02*
D03*
Y385000D02*
D03*
X80000Y410000D02*
D03*
X100000D02*
D03*
Y390000D02*
D03*
X80000D02*
D03*
Y370000D02*
D03*
X100000D02*
D03*
X90000Y380000D02*
D03*
Y400000D02*
D03*
Y360000D02*
D03*
X80000Y350000D02*
D03*
X100000D02*
D03*
X90000Y340000D02*
D03*
X80000Y330000D02*
D03*
X100000D02*
D03*
Y90000D02*
D03*
X80000D02*
D03*
X90000Y100000D02*
D03*
X100000Y110000D02*
D03*
X80000D02*
D03*
X90000Y120000D02*
D03*
Y160000D02*
D03*
Y140000D02*
D03*
X100000Y130000D02*
D03*
X80000D02*
D03*
Y150000D02*
D03*
X98000D02*
D03*
Y170000D02*
D03*
X80000D02*
D03*
X122000Y145000D02*
D03*
Y156000D02*
D03*
D30*
X242500Y274000D02*
Y314500D01*
X156500Y324000D02*
X233000D01*
X242500Y314500D01*
X245500Y281000D02*
Y328500D01*
X156500Y348000D02*
X226000D01*
X245500Y328500D01*
X247500Y274000D02*
Y279000D01*
X245500Y281000D02*
X247500Y279000D01*
X242500Y217500D02*
Y226000D01*
X227000Y202000D02*
X242500Y217500D01*
X227000Y195500D02*
Y202000D01*
X247500Y218257D02*
Y226000D01*
X243000Y213757D02*
X247500Y218257D01*
X243000Y210000D02*
Y213757D01*
X274000Y252500D02*
X279500D01*
X312500Y352000D02*
X322000D01*
X331000Y343000D01*
X289000Y281000D02*
X295000Y287000D01*
X279500Y252500D02*
X289000Y262000D01*
Y281000D01*
X295000Y287000D02*
X324000D01*
X331000Y294000D01*
Y343000D01*
D31*
X296500Y242000D02*
Y243500D01*
X305000Y252000D01*
D32*
X198500Y247000D02*
Y256500D01*
X195000Y260000D02*
X198500Y256500D01*
X157500Y260000D02*
X195000D01*
X156500Y261000D02*
X157500Y260000D01*
X156500Y250000D02*
Y261000D01*
Y296000D01*
D33*
X227000Y195500D02*
D03*
Y176500D02*
D03*
X250000Y176500D02*
D03*
Y195500D02*
D03*
X274000Y195500D02*
D03*
Y176500D02*
D03*
X297000Y176500D02*
D03*
Y195500D02*
D03*
X320000Y195500D02*
D03*
Y176500D02*
D03*
X258000Y289500D02*
D03*
Y308500D02*
D03*
D34*
X295500Y217000D02*
D03*
X326500D02*
D03*
D35*
X315500Y242000D02*
D03*
X296500D02*
D03*
X179500Y247000D02*
D03*
X198500D02*
D03*
X314500Y299000D02*
D03*
X295500D02*
D03*
X198500Y201000D02*
D03*
X179500D02*
D03*
X178500Y297000D02*
D03*
X197500D02*
D03*
X296500Y265000D02*
D03*
X315500D02*
D03*
X295500Y328000D02*
D03*
X314500D02*
D03*
D36*
X156500Y250000D02*
D03*
X137500D02*
D03*
X137500Y273000D02*
D03*
X156500D02*
D03*
X156500Y296000D02*
D03*
X137500D02*
D03*
X181500Y224000D02*
D03*
X200500D02*
D03*
X199500Y274000D02*
D03*
X180500D02*
D03*
X312500Y352000D02*
D03*
X293500D02*
D03*
X156500Y348000D02*
D03*
X137500D02*
D03*
X156500Y324000D02*
D03*
X137500D02*
D03*
X254500Y328000D02*
D03*
X273500D02*
D03*
X254500Y374000D02*
D03*
X273500D02*
D03*
X254500Y351000D02*
D03*
X273500D02*
D03*
X273500Y397000D02*
D03*
X254500D02*
D03*
D37*
X250000Y250000D02*
D03*
D38*
X274000Y267500D02*
D03*
Y262500D02*
D03*
Y257500D02*
D03*
Y252500D02*
D03*
Y247500D02*
D03*
Y242500D02*
D03*
Y237500D02*
D03*
Y232500D02*
D03*
X226000D02*
D03*
Y237500D02*
D03*
Y242500D02*
D03*
Y247500D02*
D03*
Y252500D02*
D03*
Y257500D02*
D03*
Y262500D02*
D03*
Y267500D02*
D03*
D39*
X267500Y226000D02*
D03*
X262500D02*
D03*
X257500D02*
D03*
X252500D02*
D03*
X247500D02*
D03*
X242500D02*
D03*
X237500D02*
D03*
X232500D02*
D03*
Y274000D02*
D03*
X237500D02*
D03*
X242500D02*
D03*
X247500D02*
D03*
X252500D02*
D03*
X257500D02*
D03*
X262500D02*
D03*
X267500D02*
D03*
D40*
X215000Y206000D02*
Y219000D01*
X198500Y201000D02*
X210000D01*
X222000Y226000D02*
X227000D01*
X215000Y219000D02*
X222000Y226000D01*
X210000Y201000D02*
X215000Y206000D01*
X198500Y188000D02*
Y201000D01*
X197500Y297000D02*
Y309500D01*
Y297000D02*
X205000D01*
X221000Y281000D01*
X226000D01*
X254500Y374000D02*
Y397000D01*
Y351000D02*
Y374000D01*
Y328000D02*
Y351000D01*
Y328000D02*
X269000Y313500D01*
X254500Y397000D02*
X254500Y397000D01*
X269000Y286000D02*
Y313500D01*
D41*
X296500Y275500D02*
X300000Y279000D01*
X326000Y374000D02*
X339000Y361000D01*
X296500Y265000D02*
Y275500D01*
X277000Y374000D02*
X326000D01*
X300000Y279000D02*
X329000D01*
X339000Y289000D01*
Y361000D01*
M02*
