G04*
G04 #@! TF.GenerationSoftware,Altium Limited,Altium Designer,21.1.1 (26)*
G04*
G04 Layer_Color=255*
%FSLAX44Y44*%
%MOMM*%
G71*
G04*
G04 #@! TF.SameCoordinates,2B608519-D33F-45DA-9D82-168DE6A03E0F*
G04*
G04*
G04 #@! TF.FilePolarity,Positive*
G04*
G01*
G75*
%ADD13R,3.8500X5.5000*%
%ADD14R,1.1940X0.5590*%
%ADD15R,0.9000X2.5000*%
%ADD16R,2.5500X3.7500*%
%ADD23C,4.0000*%
D13*
X220250Y370000D02*
D03*
X319750D02*
D03*
X319750Y130000D02*
D03*
X220250D02*
D03*
D14*
X134730Y169050D02*
D03*
Y156350D02*
D03*
Y143650D02*
D03*
Y130950D02*
D03*
X185270Y169050D02*
D03*
Y156350D02*
D03*
Y143650D02*
D03*
Y130950D02*
D03*
X134730Y409050D02*
D03*
Y396350D02*
D03*
Y383650D02*
D03*
Y370950D02*
D03*
X185270Y409050D02*
D03*
Y396350D02*
D03*
Y383650D02*
D03*
Y370950D02*
D03*
D15*
X187500Y200000D02*
D03*
X156500D02*
D03*
Y440000D02*
D03*
X187500D02*
D03*
D16*
X380000Y197000D02*
D03*
Y143000D02*
D03*
Y303000D02*
D03*
Y357000D02*
D03*
D23*
X450000Y200000D02*
D03*
Y140000D02*
D03*
Y360000D02*
D03*
Y300000D02*
D03*
X50000D02*
D03*
Y200000D02*
D03*
M02*
