G04*
G04 #@! TF.GenerationSoftware,Altium Limited,Altium Designer,21.1.1 (26)*
G04*
G04 Layer_Color=255*
%FSLAX44Y44*%
%MOMM*%
G71*
G04*
G04 #@! TF.SameCoordinates,2B608519-D33F-45DA-9D82-168DE6A03E0F*
G04*
G04*
G04 #@! TF.FilePolarity,Positive*
G04*
G01*
G75*
%ADD23C,4.0000*%
%ADD33R,1.3000X0.7000*%
%ADD34R,0.9000X1.6000*%
%ADD35R,0.9000X1.3000*%
%ADD36R,0.7000X1.3000*%
%ADD37R,3.3000X3.3000*%
%ADD38R,0.6000X0.2300*%
%ADD39R,0.2300X0.6000*%
D23*
X450000Y200000D02*
D03*
Y140000D02*
D03*
Y360000D02*
D03*
Y300000D02*
D03*
X50000D02*
D03*
Y200000D02*
D03*
D33*
X227000Y195500D02*
D03*
Y176500D02*
D03*
X250000Y176500D02*
D03*
Y195500D02*
D03*
X274000Y195500D02*
D03*
Y176500D02*
D03*
X297000Y176500D02*
D03*
Y195500D02*
D03*
X320000Y195500D02*
D03*
Y176500D02*
D03*
X258000Y289500D02*
D03*
Y308500D02*
D03*
D34*
X295500Y217000D02*
D03*
X326500D02*
D03*
D35*
X315500Y242000D02*
D03*
X296500D02*
D03*
X179500Y247000D02*
D03*
X198500D02*
D03*
X314500Y299000D02*
D03*
X295500D02*
D03*
X198500Y201000D02*
D03*
X179500D02*
D03*
X178500Y297000D02*
D03*
X197500D02*
D03*
X296500Y265000D02*
D03*
X315500D02*
D03*
X295500Y328000D02*
D03*
X314500D02*
D03*
D36*
X156500Y250000D02*
D03*
X137500D02*
D03*
X137500Y273000D02*
D03*
X156500D02*
D03*
X156500Y296000D02*
D03*
X137500D02*
D03*
X181500Y224000D02*
D03*
X200500D02*
D03*
X199500Y274000D02*
D03*
X180500D02*
D03*
X312500Y352000D02*
D03*
X293500D02*
D03*
X156500Y348000D02*
D03*
X137500D02*
D03*
X156500Y324000D02*
D03*
X137500D02*
D03*
X254500Y328000D02*
D03*
X273500D02*
D03*
X254500Y374000D02*
D03*
X273500D02*
D03*
X254500Y351000D02*
D03*
X273500D02*
D03*
X273500Y397000D02*
D03*
X254500D02*
D03*
D37*
X250000Y250000D02*
D03*
D38*
X274000Y267500D02*
D03*
Y262500D02*
D03*
Y257500D02*
D03*
Y252500D02*
D03*
Y247500D02*
D03*
Y242500D02*
D03*
Y237500D02*
D03*
Y232500D02*
D03*
X226000D02*
D03*
Y237500D02*
D03*
Y242500D02*
D03*
Y247500D02*
D03*
Y252500D02*
D03*
Y257500D02*
D03*
Y262500D02*
D03*
Y267500D02*
D03*
D39*
X267500Y226000D02*
D03*
X262500D02*
D03*
X257500D02*
D03*
X252500D02*
D03*
X247500D02*
D03*
X242500D02*
D03*
X237500D02*
D03*
X232500D02*
D03*
Y274000D02*
D03*
X237500D02*
D03*
X242500D02*
D03*
X247500D02*
D03*
X252500D02*
D03*
X257500D02*
D03*
X262500D02*
D03*
X267500D02*
D03*
M02*
