G04*
G04 #@! TF.GenerationSoftware,Altium Limited,Altium Designer,21.1.1 (26)*
G04*
G04 Layer_Physical_Order=5*
G04 Layer_Color=128*
%FSLAX44Y44*%
%MOMM*%
G71*
G04*
G04 #@! TF.SameCoordinates,2B608519-D33F-45DA-9D82-168DE6A03E0F*
G04*
G04*
G04 #@! TF.FilePolarity,Negative*
G04*
G01*
G75*
%ADD25C,1.0160*%
G04:AMPARAMS|DCode=26|XSize=3.008mm|YSize=3.008mm|CornerRadius=0mm|HoleSize=0mm|Usage=FLASHONLY|Rotation=0.000|XOffset=0mm|YOffset=0mm|HoleType=Round|Shape=Relief|Width=1mm|Gap=0.254mm|Entries=4|*
%AMTHD26*
7,0,0,3.0080,2.5000,1.0000,45*
%
%ADD26THD26*%
%ADD27C,2.5160*%
%ADD28C,1.2160*%
D25*
X0Y0D02*
Y500000D01*
X500000D01*
Y0D02*
Y500000D01*
X0Y0D02*
X500000D01*
D26*
X450000Y200000D02*
D03*
Y300000D02*
D03*
X50000Y200000D02*
D03*
D27*
X450000Y140000D02*
D03*
Y360000D02*
D03*
X50000Y300000D02*
D03*
D28*
X353000Y370000D02*
D03*
X257500Y281500D02*
D03*
X233000Y324000D02*
D03*
X234000Y291000D02*
D03*
X196000Y371000D02*
D03*
X197500Y309500D02*
D03*
X215000Y265000D02*
D03*
X216000Y248000D02*
D03*
Y237500D02*
D03*
X198500Y188000D02*
D03*
X196000Y154250D02*
D03*
X120050Y370950D02*
D03*
Y409050D02*
D03*
Y130950D02*
D03*
Y169050D02*
D03*
X232000Y215000D02*
D03*
X130000Y348000D02*
D03*
Y324000D02*
D03*
Y296000D02*
D03*
Y286000D02*
D03*
Y250000D02*
D03*
X227000Y169000D02*
D03*
X274000D02*
D03*
X282000Y351000D02*
D03*
X293500Y362000D02*
D03*
X295500Y309000D02*
D03*
X305000Y252000D02*
D03*
X295500Y229000D02*
D03*
X243000Y210000D02*
D03*
X297000Y203000D02*
D03*
X346000Y130000D02*
D03*
X280000Y272000D02*
D03*
M02*
