G04*
G04 #@! TF.GenerationSoftware,Altium Limited,Altium Designer,21.1.1 (26)*
G04*
G04 Layer_Physical_Order=4*
G04 Layer_Color=16440176*
%FSLAX44Y44*%
%MOMM*%
G71*
G04*
G04 #@! TF.SameCoordinates,2B608519-D33F-45DA-9D82-168DE6A03E0F*
G04*
G04*
G04 #@! TF.FilePolarity,Positive*
G04*
G01*
G75*
%ADD24C,0.4500*%
G36*
X410000Y40000D02*
X80000D01*
Y86177D01*
X81463Y86468D01*
X82704Y87296D01*
X83532Y88537D01*
X83823Y90000D01*
X83532Y91463D01*
X82704Y92704D01*
X81463Y93532D01*
X80000Y93823D01*
Y106177D01*
X81463Y106468D01*
X82704Y107296D01*
X83532Y108537D01*
X83823Y110000D01*
X83532Y111463D01*
X82704Y112704D01*
X81463Y113532D01*
X80000Y113823D01*
Y126177D01*
X81463Y126468D01*
X82704Y127296D01*
X83532Y128537D01*
X83823Y130000D01*
X83532Y131463D01*
X82704Y132704D01*
X81463Y133532D01*
X80000Y133823D01*
Y146177D01*
X81463Y146468D01*
X82704Y147296D01*
X83532Y148537D01*
X83823Y150000D01*
X83532Y151463D01*
X82704Y152704D01*
X81463Y153532D01*
X80000Y153823D01*
Y166177D01*
X81463Y166468D01*
X82704Y167296D01*
X83532Y168537D01*
X83823Y170000D01*
X83532Y171463D01*
X82704Y172704D01*
X81463Y173532D01*
X80000Y173823D01*
Y326177D01*
X81463Y326468D01*
X82704Y327296D01*
X83532Y328537D01*
X83823Y330000D01*
X83532Y331463D01*
X82704Y332704D01*
X81463Y333532D01*
X80000Y333823D01*
Y346177D01*
X81463Y346468D01*
X82704Y347296D01*
X83532Y348537D01*
X83823Y350000D01*
X83532Y351463D01*
X82704Y352704D01*
X81463Y353532D01*
X80000Y353823D01*
Y366177D01*
X81463Y366468D01*
X82704Y367296D01*
X83532Y368537D01*
X83823Y370000D01*
X83532Y371463D01*
X82704Y372704D01*
X81463Y373532D01*
X80000Y373823D01*
Y386177D01*
X81463Y386468D01*
X82704Y387296D01*
X83532Y388537D01*
X83823Y390000D01*
X83532Y391463D01*
X82704Y392704D01*
X81463Y393532D01*
X80000Y393823D01*
Y406177D01*
X81463Y406468D01*
X82704Y407296D01*
X83532Y408537D01*
X83823Y410000D01*
X83532Y411463D01*
X82704Y412704D01*
X81463Y413532D01*
X80000Y413823D01*
Y460000D01*
X410000D01*
Y40000D01*
D02*
G37*
%LPC*%
G36*
X196000Y452823D02*
X194537Y452532D01*
X193296Y451704D01*
X192468Y450463D01*
X192177Y449000D01*
X192468Y447537D01*
X193296Y446296D01*
X194537Y445468D01*
X196000Y445177D01*
X197463Y445468D01*
X198704Y446296D01*
X199532Y447537D01*
X199823Y449000D01*
X199532Y450463D01*
X198704Y451704D01*
X197463Y452532D01*
X196000Y452823D01*
D02*
G37*
G36*
Y443823D02*
X194537Y443532D01*
X193296Y442704D01*
X192468Y441463D01*
X192177Y440000D01*
X192468Y438537D01*
X193296Y437296D01*
X194537Y436468D01*
X196000Y436177D01*
X197463Y436468D01*
X198704Y437296D01*
X199532Y438537D01*
X199823Y440000D01*
X199532Y441463D01*
X198704Y442704D01*
X197463Y443532D01*
X196000Y443823D01*
D02*
G37*
G36*
Y434823D02*
X194537Y434532D01*
X193296Y433704D01*
X192468Y432463D01*
X192177Y431000D01*
X192468Y429537D01*
X193296Y428296D01*
X194537Y427468D01*
X196000Y427177D01*
X197463Y427468D01*
X198704Y428296D01*
X199532Y429537D01*
X199823Y431000D01*
X199532Y432463D01*
X198704Y433704D01*
X197463Y434532D01*
X196000Y434823D01*
D02*
G37*
G36*
X100000Y413823D02*
X98537Y413532D01*
X97296Y412704D01*
X96468Y411463D01*
X96177Y410000D01*
X96468Y408537D01*
X97296Y407296D01*
X98537Y406468D01*
X100000Y406177D01*
X101463Y406468D01*
X102704Y407296D01*
X103532Y408537D01*
X103823Y410000D01*
X103532Y411463D01*
X102704Y412704D01*
X101463Y413532D01*
X100000Y413823D01*
D02*
G37*
G36*
X120050Y412873D02*
X118587Y412582D01*
X117346Y411754D01*
X116518Y410513D01*
X116227Y409050D01*
X116518Y407587D01*
X117346Y406346D01*
X118587Y405518D01*
X120050Y405227D01*
X121513Y405518D01*
X122754Y406346D01*
X123582Y407587D01*
X123873Y409050D01*
X123582Y410513D01*
X122754Y411754D01*
X121513Y412582D01*
X120050Y412873D01*
D02*
G37*
G36*
X90000Y403823D02*
X88537Y403532D01*
X87296Y402704D01*
X86468Y401463D01*
X86177Y400000D01*
X86468Y398537D01*
X87296Y397296D01*
X88537Y396468D01*
X90000Y396177D01*
X91463Y396468D01*
X92704Y397296D01*
X93532Y398537D01*
X93823Y400000D01*
X93532Y401463D01*
X92704Y402704D01*
X91463Y403532D01*
X90000Y403823D01*
D02*
G37*
G36*
X281000Y400823D02*
X279537Y400532D01*
X278296Y399704D01*
X277468Y398463D01*
X277177Y397000D01*
X277468Y395537D01*
X278296Y394296D01*
X279537Y393468D01*
X281000Y393177D01*
X282463Y393468D01*
X283704Y394296D01*
X284532Y395537D01*
X284823Y397000D01*
X284532Y398463D01*
X283704Y399704D01*
X282463Y400532D01*
X281000Y400823D01*
D02*
G37*
G36*
X122000Y399823D02*
X120537Y399532D01*
X119296Y398704D01*
X118468Y397463D01*
X118177Y396000D01*
X118468Y394537D01*
X119296Y393296D01*
X120537Y392468D01*
X122000Y392177D01*
X123463Y392468D01*
X124704Y393296D01*
X125532Y394537D01*
X125823Y396000D01*
X125532Y397463D01*
X124704Y398704D01*
X123463Y399532D01*
X122000Y399823D01*
D02*
G37*
G36*
X100000Y393823D02*
X98537Y393532D01*
X97296Y392704D01*
X96468Y391463D01*
X96177Y390000D01*
X96468Y388537D01*
X97296Y387296D01*
X98537Y386468D01*
X100000Y386177D01*
X101463Y386468D01*
X102704Y387296D01*
X103532Y388537D01*
X103823Y390000D01*
X103532Y391463D01*
X102704Y392704D01*
X101463Y393532D01*
X100000Y393823D01*
D02*
G37*
G36*
X122000Y388823D02*
X120537Y388532D01*
X119296Y387704D01*
X118468Y386463D01*
X118177Y385000D01*
X118468Y383537D01*
X119296Y382296D01*
X120537Y381468D01*
X122000Y381177D01*
X123463Y381468D01*
X124704Y382296D01*
X125532Y383537D01*
X125823Y385000D01*
X125532Y386463D01*
X124704Y387704D01*
X123463Y388532D01*
X122000Y388823D01*
D02*
G37*
G36*
X90000Y383823D02*
X88537Y383532D01*
X87296Y382704D01*
X86468Y381463D01*
X86177Y380000D01*
X86468Y378537D01*
X87296Y377296D01*
X88537Y376468D01*
X90000Y376177D01*
X91463Y376468D01*
X92704Y377296D01*
X93532Y378537D01*
X93823Y380000D01*
X93532Y381463D01*
X92704Y382704D01*
X91463Y383532D01*
X90000Y383823D01*
D02*
G37*
G36*
X196000Y374823D02*
X194537Y374532D01*
X193296Y373704D01*
X192468Y372463D01*
X192177Y371000D01*
X192468Y369537D01*
X193296Y368296D01*
X194537Y367468D01*
X196000Y367177D01*
X197463Y367468D01*
X198704Y368296D01*
X199532Y369537D01*
X199823Y371000D01*
X199532Y372463D01*
X198704Y373704D01*
X197463Y374532D01*
X196000Y374823D01*
D02*
G37*
G36*
X120050Y374773D02*
X118587Y374482D01*
X117346Y373654D01*
X116518Y372413D01*
X116227Y370950D01*
X116518Y369487D01*
X117346Y368246D01*
X118587Y367418D01*
X120050Y367127D01*
X121513Y367418D01*
X122754Y368246D01*
X123582Y369487D01*
X123873Y370950D01*
X123582Y372413D01*
X122754Y373654D01*
X121513Y374482D01*
X120050Y374773D01*
D02*
G37*
G36*
X353000Y373823D02*
X351537Y373532D01*
X350296Y372704D01*
X349468Y371463D01*
X349177Y370000D01*
X349468Y368537D01*
X350296Y367296D01*
X351537Y366468D01*
X353000Y366177D01*
X354463Y366468D01*
X355704Y367296D01*
X356532Y368537D01*
X356823Y370000D01*
X356532Y371463D01*
X355704Y372704D01*
X354463Y373532D01*
X353000Y373823D01*
D02*
G37*
G36*
X100000D02*
X98537Y373532D01*
X97296Y372704D01*
X96468Y371463D01*
X96177Y370000D01*
X96468Y368537D01*
X97296Y367296D01*
X98537Y366468D01*
X100000Y366177D01*
X101463Y366468D01*
X102704Y367296D01*
X103532Y368537D01*
X103823Y370000D01*
X103532Y371463D01*
X102704Y372704D01*
X101463Y373532D01*
X100000Y373823D01*
D02*
G37*
G36*
X90000Y363823D02*
X88537Y363532D01*
X87296Y362704D01*
X86468Y361463D01*
X86177Y360000D01*
X86468Y358537D01*
X87296Y357296D01*
X88537Y356468D01*
X90000Y356177D01*
X91463Y356468D01*
X92704Y357296D01*
X93532Y358537D01*
X93823Y360000D01*
X93532Y361463D01*
X92704Y362704D01*
X91463Y363532D01*
X90000Y363823D01*
D02*
G37*
G36*
X100000Y353823D02*
X98537Y353532D01*
X97296Y352704D01*
X96468Y351463D01*
X96177Y350000D01*
X96468Y348537D01*
X97296Y347296D01*
X98537Y346468D01*
X100000Y346177D01*
X101463Y346468D01*
X102704Y347296D01*
X103532Y348537D01*
X103823Y350000D01*
X103532Y351463D01*
X102704Y352704D01*
X101463Y353532D01*
X100000Y353823D01*
D02*
G37*
G36*
X90000Y343823D02*
X88537Y343532D01*
X87296Y342704D01*
X86468Y341463D01*
X86177Y340000D01*
X86468Y338537D01*
X87296Y337296D01*
X88537Y336468D01*
X90000Y336177D01*
X91463Y336468D01*
X92704Y337296D01*
X93532Y338537D01*
X93823Y340000D01*
X93532Y341463D01*
X92704Y342704D01*
X91463Y343532D01*
X90000Y343823D01*
D02*
G37*
G36*
X100000Y333823D02*
X98537Y333532D01*
X97296Y332704D01*
X96468Y331463D01*
X96177Y330000D01*
X96468Y328537D01*
X97296Y327296D01*
X98537Y326468D01*
X100000Y326177D01*
X101463Y326468D01*
X102704Y327296D01*
X103532Y328537D01*
X103823Y330000D01*
X103532Y331463D01*
X102704Y332704D01*
X101463Y333532D01*
X100000Y333823D01*
D02*
G37*
G36*
X322000Y335823D02*
X320537Y335532D01*
X319296Y334704D01*
X318468Y333463D01*
X318177Y332000D01*
X318468Y330537D01*
X319296Y329296D01*
X320286Y328635D01*
Y327365D01*
X319296Y326704D01*
X318468Y325463D01*
X318177Y324000D01*
X318468Y322537D01*
X319296Y321296D01*
X320537Y320468D01*
X322000Y320177D01*
X323463Y320468D01*
X324704Y321296D01*
X325532Y322537D01*
X325823Y324000D01*
X325532Y325463D01*
X324704Y326704D01*
X323714Y327365D01*
Y328635D01*
X324704Y329296D01*
X325532Y330537D01*
X325823Y332000D01*
X325532Y333463D01*
X324704Y334704D01*
X323463Y335532D01*
X322000Y335823D01*
D02*
G37*
G36*
X233000Y327823D02*
X231537Y327532D01*
X230296Y326704D01*
X229468Y325463D01*
X229177Y324000D01*
X229468Y322537D01*
X230296Y321296D01*
X231537Y320468D01*
X233000Y320177D01*
X234463Y320468D01*
X235704Y321296D01*
X236532Y322537D01*
X236823Y324000D01*
X236532Y325463D01*
X235704Y326704D01*
X234463Y327532D01*
X233000Y327823D01*
D02*
G37*
G36*
X258000Y319823D02*
X256537Y319532D01*
X255296Y318704D01*
X254468Y317463D01*
X254177Y316000D01*
X254468Y314537D01*
X255296Y313296D01*
X256537Y312468D01*
X258000Y312177D01*
X259463Y312468D01*
X260704Y313296D01*
X261532Y314537D01*
X261823Y316000D01*
X261532Y317463D01*
X260704Y318704D01*
X259463Y319532D01*
X258000Y319823D01*
D02*
G37*
G36*
X397000Y315823D02*
X395537Y315532D01*
X394296Y314704D01*
X393468Y313463D01*
X393177Y312000D01*
X393468Y310537D01*
X394296Y309296D01*
X395537Y308468D01*
X397000Y308177D01*
X398463Y308468D01*
X399704Y309296D01*
X400532Y310537D01*
X400823Y312000D01*
X400532Y313463D01*
X399704Y314704D01*
X398463Y315532D01*
X397000Y315823D01*
D02*
G37*
G36*
X363000D02*
X361537Y315532D01*
X360296Y314704D01*
X359468Y313463D01*
X359177Y312000D01*
X359468Y310537D01*
X360296Y309296D01*
X361537Y308468D01*
X363000Y308177D01*
X364463Y308468D01*
X365704Y309296D01*
X366532Y310537D01*
X366823Y312000D01*
X366532Y313463D01*
X365704Y314704D01*
X364463Y315532D01*
X363000Y315823D01*
D02*
G37*
G36*
X197500Y313323D02*
X196037Y313032D01*
X194796Y312204D01*
X193968Y310963D01*
X193677Y309500D01*
X193968Y308037D01*
X194796Y306796D01*
X196037Y305968D01*
X197500Y305677D01*
X198963Y305968D01*
X200204Y306796D01*
X201032Y308037D01*
X201323Y309500D01*
X201032Y310963D01*
X200204Y312204D01*
X198963Y313032D01*
X197500Y313323D01*
D02*
G37*
G36*
X397000Y298823D02*
X395537Y298532D01*
X394296Y297704D01*
X393468Y296463D01*
X393177Y295000D01*
X393468Y293537D01*
X394296Y292296D01*
X395537Y291468D01*
X397000Y291177D01*
X398463Y291468D01*
X399704Y292296D01*
X400532Y293537D01*
X400823Y295000D01*
X400532Y296463D01*
X399704Y297704D01*
X398463Y298532D01*
X397000Y298823D01*
D02*
G37*
G36*
X363000D02*
X361537Y298532D01*
X360296Y297704D01*
X359468Y296463D01*
X359177Y295000D01*
X359468Y293537D01*
X360296Y292296D01*
X361537Y291468D01*
X363000Y291177D01*
X364463Y291468D01*
X365704Y292296D01*
X366532Y293537D01*
X366823Y295000D01*
X366532Y296463D01*
X365704Y297704D01*
X364463Y298532D01*
X363000Y298823D01*
D02*
G37*
G36*
X322000Y306823D02*
X320537Y306532D01*
X319296Y305704D01*
X318468Y304463D01*
X318176Y303000D01*
X318468Y301537D01*
X319296Y300296D01*
X320286Y299635D01*
Y298365D01*
X319296Y297704D01*
X318468Y296463D01*
X318176Y295000D01*
X318468Y293537D01*
X319296Y292296D01*
X320537Y291468D01*
X322000Y291177D01*
X323463Y291468D01*
X324703Y292296D01*
X325532Y293537D01*
X325823Y295000D01*
X325532Y296463D01*
X324703Y297704D01*
X323714Y298365D01*
Y299635D01*
X324703Y300296D01*
X325532Y301537D01*
X325823Y303000D01*
X325532Y304463D01*
X324703Y305704D01*
X323463Y306532D01*
X322000Y306823D01*
D02*
G37*
G36*
X234000Y294823D02*
X232537Y294532D01*
X231296Y293704D01*
X230468Y292463D01*
X230177Y291000D01*
X230468Y289537D01*
X231296Y288296D01*
X232537Y287468D01*
X234000Y287177D01*
X235463Y287468D01*
X236704Y288296D01*
X237532Y289537D01*
X237823Y291000D01*
X237532Y292463D01*
X236704Y293704D01*
X235463Y294532D01*
X234000Y294823D01*
D02*
G37*
G36*
X130000Y289823D02*
X128537Y289532D01*
X127296Y288704D01*
X126468Y287463D01*
X126177Y286000D01*
X126468Y284537D01*
X127296Y283296D01*
X128537Y282468D01*
X130000Y282177D01*
X131463Y282468D01*
X132704Y283296D01*
X133532Y284537D01*
X133823Y286000D01*
X133532Y287463D01*
X132704Y288704D01*
X131463Y289532D01*
X130000Y289823D01*
D02*
G37*
G36*
X251000Y285823D02*
X249537Y285532D01*
X248296Y284704D01*
X247468Y283463D01*
X247177Y282000D01*
X247468Y280537D01*
X248296Y279296D01*
X249537Y278468D01*
X251000Y278177D01*
X252463Y278468D01*
X253481Y279148D01*
X254727Y278900D01*
X254796Y278796D01*
X256037Y277968D01*
X257500Y277677D01*
X258963Y277968D01*
X260204Y278796D01*
X261032Y280037D01*
X261323Y281500D01*
X261032Y282963D01*
X260204Y284204D01*
X258963Y285032D01*
X257500Y285323D01*
X256037Y285032D01*
X255019Y284352D01*
X253773Y284600D01*
X253704Y284704D01*
X252463Y285532D01*
X251000Y285823D01*
D02*
G37*
G36*
X389000Y283823D02*
X387537Y283532D01*
X386296Y282704D01*
X385468Y281463D01*
X385177Y280000D01*
X385468Y278537D01*
X386296Y277296D01*
X387537Y276468D01*
X389000Y276177D01*
X390463Y276468D01*
X391704Y277296D01*
X392532Y278537D01*
X392823Y280000D01*
X392532Y281463D01*
X391704Y282704D01*
X390463Y283532D01*
X389000Y283823D01*
D02*
G37*
G36*
X371000D02*
X369537Y283532D01*
X368296Y282704D01*
X367468Y281463D01*
X367177Y280000D01*
X367468Y278537D01*
X368296Y277296D01*
X369537Y276468D01*
X371000Y276177D01*
X372463Y276468D01*
X373704Y277296D01*
X374532Y278537D01*
X374823Y280000D01*
X374532Y281463D01*
X373704Y282704D01*
X372463Y283532D01*
X371000Y283823D01*
D02*
G37*
G36*
X215000Y268823D02*
X213537Y268532D01*
X212296Y267704D01*
X211468Y266463D01*
X211177Y265000D01*
X211468Y263537D01*
X212296Y262296D01*
X213537Y261468D01*
X215000Y261177D01*
X216463Y261468D01*
X217704Y262296D01*
X218532Y263537D01*
X218823Y265000D01*
X218532Y266463D01*
X217704Y267704D01*
X216463Y268532D01*
X215000Y268823D01*
D02*
G37*
G36*
X323000Y272823D02*
X321537Y272532D01*
X320296Y271704D01*
X319468Y270463D01*
X319177Y269000D01*
X319468Y267537D01*
X320296Y266296D01*
X321286Y265635D01*
Y264365D01*
X320296Y263704D01*
X319468Y262463D01*
X319177Y261000D01*
X319468Y259537D01*
X320296Y258296D01*
X321537Y257468D01*
X323000Y257177D01*
X324463Y257468D01*
X325704Y258296D01*
X326532Y259537D01*
X326823Y261000D01*
X326532Y262463D01*
X325704Y263704D01*
X324714Y264365D01*
Y265635D01*
X325704Y266296D01*
X326532Y267537D01*
X326823Y269000D01*
X326532Y270463D01*
X325704Y271704D01*
X324463Y272532D01*
X323000Y272823D01*
D02*
G37*
G36*
X258000Y262823D02*
X256537Y262532D01*
X255296Y261704D01*
X254468Y260463D01*
X254177Y259000D01*
X254468Y257537D01*
X255296Y256296D01*
X256537Y255468D01*
X258000Y255177D01*
X259463Y255468D01*
X260704Y256296D01*
X261532Y257537D01*
X261823Y259000D01*
X261532Y260463D01*
X260704Y261704D01*
X259463Y262532D01*
X258000Y262823D01*
D02*
G37*
G36*
X241000D02*
X239537Y262532D01*
X238296Y261704D01*
X237468Y260463D01*
X237177Y259000D01*
X237468Y257537D01*
X238296Y256296D01*
X239537Y255468D01*
X241000Y255177D01*
X242463Y255468D01*
X243704Y256296D01*
X244532Y257537D01*
X244823Y259000D01*
X244532Y260463D01*
X243704Y261704D01*
X242463Y262532D01*
X241000Y262823D01*
D02*
G37*
G36*
X305000Y255823D02*
X303537Y255532D01*
X302296Y254704D01*
X301468Y253463D01*
X301177Y252000D01*
X301468Y250537D01*
X302296Y249296D01*
X303537Y248468D01*
X305000Y248177D01*
X306463Y248468D01*
X307704Y249296D01*
X308532Y250537D01*
X308823Y252000D01*
X308532Y253463D01*
X307704Y254704D01*
X306463Y255532D01*
X305000Y255823D01*
D02*
G37*
G36*
X130000Y253823D02*
X128537Y253532D01*
X127296Y252704D01*
X126468Y251463D01*
X126177Y250000D01*
X126468Y248537D01*
X127296Y247296D01*
X128537Y246468D01*
X130000Y246177D01*
X131463Y246468D01*
X132704Y247296D01*
X133532Y248537D01*
X133823Y250000D01*
X133532Y251463D01*
X132704Y252704D01*
X131463Y253532D01*
X130000Y253823D01*
D02*
G37*
G36*
X166000Y251823D02*
X164537Y251532D01*
X163296Y250704D01*
X162468Y249463D01*
X162177Y248000D01*
X162468Y246537D01*
X163296Y245296D01*
X164537Y244468D01*
X166000Y244177D01*
X166834Y244342D01*
X167177Y244000D01*
X167468Y242537D01*
X168296Y241296D01*
X169537Y240468D01*
X171000Y240177D01*
X172463Y240468D01*
X173704Y241296D01*
X174532Y242537D01*
X174823Y244000D01*
X174532Y245463D01*
X173704Y246704D01*
X172463Y247532D01*
X171000Y247823D01*
X170166Y247658D01*
X169823Y248000D01*
X169532Y249463D01*
X168704Y250704D01*
X167463Y251532D01*
X166000Y251823D01*
D02*
G37*
G36*
X258000Y246823D02*
X256537Y246532D01*
X255296Y245704D01*
X254468Y244463D01*
X254177Y243000D01*
X254468Y241537D01*
X255296Y240296D01*
X256537Y239468D01*
X258000Y239177D01*
X259463Y239468D01*
X260704Y240296D01*
X261532Y241537D01*
X261823Y243000D01*
X261532Y244463D01*
X260704Y245704D01*
X259463Y246532D01*
X258000Y246823D01*
D02*
G37*
G36*
X241000D02*
X239537Y246532D01*
X238296Y245704D01*
X237468Y244463D01*
X237177Y243000D01*
X237468Y241537D01*
X238296Y240296D01*
X239537Y239468D01*
X241000Y239177D01*
X242463Y239468D01*
X243704Y240296D01*
X244532Y241537D01*
X244823Y243000D01*
X244532Y244463D01*
X243704Y245704D01*
X242463Y246532D01*
X241000Y246823D01*
D02*
G37*
G36*
X323000Y249823D02*
X321537Y249532D01*
X320296Y248703D01*
X319468Y247463D01*
X319177Y246000D01*
X319468Y244537D01*
X320296Y243296D01*
X321286Y242635D01*
Y241365D01*
X320296Y240704D01*
X319468Y239463D01*
X319177Y238000D01*
X319468Y236537D01*
X320296Y235296D01*
X321537Y234468D01*
X323000Y234177D01*
X324463Y234468D01*
X325704Y235296D01*
X326532Y236537D01*
X326823Y238000D01*
X326532Y239463D01*
X325704Y240704D01*
X324714Y241365D01*
Y242635D01*
X325704Y243296D01*
X326532Y244537D01*
X326823Y246000D01*
X326532Y247463D01*
X325704Y248703D01*
X324463Y249532D01*
X323000Y249823D01*
D02*
G37*
G36*
X216000Y241324D02*
X214537Y241032D01*
X213296Y240204D01*
X212468Y238963D01*
X212177Y237500D01*
X212468Y236037D01*
X213296Y234797D01*
X214537Y233968D01*
X216000Y233677D01*
X217463Y233968D01*
X218704Y234797D01*
X219532Y236037D01*
X219823Y237500D01*
X219532Y238963D01*
X218704Y240204D01*
X217463Y241032D01*
X216000Y241324D01*
D02*
G37*
G36*
X295500Y232823D02*
X294037Y232532D01*
X292796Y231704D01*
X291968Y230463D01*
X291677Y229000D01*
X291968Y227537D01*
X292796Y226296D01*
X294037Y225468D01*
X295500Y225177D01*
X296963Y225468D01*
X298204Y226296D01*
X299032Y227537D01*
X299323Y229000D01*
X299032Y230463D01*
X298204Y231704D01*
X296963Y232532D01*
X295500Y232823D01*
D02*
G37*
G36*
X334000Y225823D02*
X332537Y225532D01*
X331296Y224704D01*
X330468Y223463D01*
X330177Y222000D01*
X330468Y220537D01*
X331296Y219296D01*
X332537Y218468D01*
X334000Y218177D01*
X335463Y218468D01*
X336704Y219296D01*
X337532Y220537D01*
X337823Y222000D01*
X337532Y223463D01*
X336704Y224704D01*
X335463Y225532D01*
X334000Y225823D01*
D02*
G37*
G36*
X278000Y224823D02*
X276537Y224532D01*
X275296Y223704D01*
X274468Y222463D01*
X274177Y221000D01*
X274468Y219537D01*
X275296Y218296D01*
X276537Y217468D01*
X278000Y217177D01*
X279463Y217468D01*
X280704Y218296D01*
X281532Y219537D01*
X281823Y221000D01*
X281532Y222463D01*
X280704Y223704D01*
X279463Y224532D01*
X278000Y224823D01*
D02*
G37*
G36*
X389000Y223823D02*
X387537Y223532D01*
X386296Y222704D01*
X385468Y221463D01*
X385177Y220000D01*
X385468Y218537D01*
X386296Y217296D01*
X387537Y216468D01*
X389000Y216177D01*
X390463Y216468D01*
X391704Y217296D01*
X392532Y218537D01*
X392823Y220000D01*
X392532Y221463D01*
X391704Y222704D01*
X390463Y223532D01*
X389000Y223823D01*
D02*
G37*
G36*
X371000D02*
X369537Y223532D01*
X368296Y222704D01*
X367468Y221463D01*
X367177Y220000D01*
X367468Y218537D01*
X368296Y217296D01*
X369537Y216468D01*
X371000Y216177D01*
X372463Y216468D01*
X373704Y217296D01*
X374532Y218537D01*
X374823Y220000D01*
X374532Y221463D01*
X373704Y222704D01*
X372463Y223532D01*
X371000Y223823D01*
D02*
G37*
G36*
X232000Y218823D02*
X230537Y218532D01*
X229296Y217704D01*
X228468Y216463D01*
X228177Y215000D01*
X228468Y213537D01*
X229296Y212296D01*
X230537Y211468D01*
X232000Y211177D01*
X233463Y211468D01*
X234704Y212296D01*
X235532Y213537D01*
X235823Y215000D01*
X235532Y216463D01*
X234704Y217704D01*
X233463Y218532D01*
X232000Y218823D01*
D02*
G37*
G36*
X334000Y215823D02*
X332537Y215532D01*
X331296Y214704D01*
X330468Y213463D01*
X330177Y212000D01*
X330468Y210537D01*
X331296Y209296D01*
X332537Y208468D01*
X334000Y208177D01*
X335463Y208468D01*
X336704Y209296D01*
X337532Y210537D01*
X337823Y212000D01*
X337532Y213463D01*
X336704Y214704D01*
X335463Y215532D01*
X334000Y215823D01*
D02*
G37*
G36*
X243000Y213823D02*
X241537Y213532D01*
X240296Y212704D01*
X239468Y211463D01*
X239177Y210000D01*
X239468Y208537D01*
X240296Y207296D01*
X241537Y206468D01*
X243000Y206177D01*
X244463Y206468D01*
X245704Y207296D01*
X246532Y208537D01*
X246823Y210000D01*
X246532Y211463D01*
X245704Y212704D01*
X244463Y213532D01*
X243000Y213823D01*
D02*
G37*
G36*
X148000Y212824D02*
X146537Y212532D01*
X145296Y211704D01*
X144468Y210463D01*
X144177Y209000D01*
X144468Y207537D01*
X145296Y206296D01*
X146537Y205468D01*
X148000Y205177D01*
X149463Y205468D01*
X150704Y206296D01*
X151532Y207537D01*
X151824Y209000D01*
X151532Y210463D01*
X150704Y211704D01*
X149463Y212532D01*
X148000Y212824D01*
D02*
G37*
G36*
X397000Y208823D02*
X395537Y208532D01*
X394296Y207704D01*
X393468Y206463D01*
X393177Y205000D01*
X393468Y203537D01*
X394296Y202296D01*
X395537Y201468D01*
X397000Y201177D01*
X398463Y201468D01*
X399704Y202296D01*
X400532Y203537D01*
X400823Y205000D01*
X400532Y206463D01*
X399704Y207704D01*
X398463Y208532D01*
X397000Y208823D01*
D02*
G37*
G36*
X363000D02*
X361537Y208532D01*
X360296Y207704D01*
X359468Y206463D01*
X359177Y205000D01*
X359468Y203537D01*
X360296Y202296D01*
X361537Y201468D01*
X363000Y201177D01*
X364463Y201468D01*
X365704Y202296D01*
X366532Y203537D01*
X366823Y205000D01*
X366532Y206463D01*
X365704Y207704D01*
X364463Y208532D01*
X363000Y208823D01*
D02*
G37*
G36*
X297000Y206823D02*
X295537Y206532D01*
X294296Y205704D01*
X293468Y204463D01*
X293177Y203000D01*
X293468Y201537D01*
X294296Y200296D01*
X295537Y199468D01*
X297000Y199177D01*
X298463Y199468D01*
X299704Y200296D01*
X300532Y201537D01*
X300823Y203000D01*
X300532Y204463D01*
X299704Y205704D01*
X298463Y206532D01*
X297000Y206823D01*
D02*
G37*
G36*
X148000Y203823D02*
X146537Y203532D01*
X145296Y202704D01*
X144468Y201463D01*
X144177Y200000D01*
X144468Y198537D01*
X145296Y197296D01*
X146537Y196468D01*
X148000Y196177D01*
X149463Y196468D01*
X150704Y197296D01*
X151532Y198537D01*
X151824Y200000D01*
X151532Y201463D01*
X150704Y202704D01*
X149463Y203532D01*
X148000Y203823D01*
D02*
G37*
G36*
X332500Y199323D02*
X331037Y199032D01*
X329796Y198204D01*
X328968Y196963D01*
X328677Y195500D01*
X328968Y194037D01*
X329796Y192796D01*
X331037Y191968D01*
X332500Y191677D01*
X333963Y191968D01*
X335204Y192796D01*
X336032Y194037D01*
X336323Y195500D01*
X336032Y196963D01*
X335204Y198204D01*
X333963Y199032D01*
X332500Y199323D01*
D02*
G37*
G36*
X148000Y194823D02*
X146537Y194532D01*
X145296Y193704D01*
X144468Y192463D01*
X144177Y191000D01*
X144468Y189537D01*
X145296Y188296D01*
X146537Y187468D01*
X148000Y187177D01*
X149463Y187468D01*
X150704Y188296D01*
X151532Y189537D01*
X151824Y191000D01*
X151532Y192463D01*
X150704Y193704D01*
X149463Y194532D01*
X148000Y194823D01*
D02*
G37*
G36*
X198500Y191823D02*
X197037Y191532D01*
X195796Y190704D01*
X194968Y189463D01*
X194676Y188000D01*
X194968Y186537D01*
X195796Y185296D01*
X197037Y184468D01*
X198500Y184177D01*
X199963Y184468D01*
X201204Y185296D01*
X202032Y186537D01*
X202323Y188000D01*
X202032Y189463D01*
X201204Y190704D01*
X199963Y191532D01*
X198500Y191823D01*
D02*
G37*
G36*
X397000Y191823D02*
X395537Y191532D01*
X394296Y190704D01*
X393468Y189463D01*
X393177Y188000D01*
X393468Y186537D01*
X394296Y185296D01*
X395537Y184468D01*
X397000Y184177D01*
X398463Y184468D01*
X399704Y185296D01*
X400532Y186537D01*
X400823Y188000D01*
X400532Y189463D01*
X399704Y190704D01*
X398463Y191532D01*
X397000Y191823D01*
D02*
G37*
G36*
X363000D02*
X361537Y191532D01*
X360296Y190704D01*
X359468Y189463D01*
X359177Y188000D01*
X359468Y186537D01*
X360296Y185296D01*
X361537Y184468D01*
X363000Y184177D01*
X364463Y184468D01*
X365704Y185296D01*
X366532Y186537D01*
X366823Y188000D01*
X366532Y189463D01*
X365704Y190704D01*
X364463Y191532D01*
X363000Y191823D01*
D02*
G37*
G36*
X98000Y173823D02*
X96537Y173532D01*
X95296Y172704D01*
X94468Y171463D01*
X94177Y170000D01*
X94468Y168537D01*
X95296Y167296D01*
X96537Y166468D01*
X98000Y166177D01*
X99463Y166468D01*
X100704Y167296D01*
X101532Y168537D01*
X101823Y170000D01*
X101532Y171463D01*
X100704Y172704D01*
X99463Y173532D01*
X98000Y173823D01*
D02*
G37*
G36*
X120050Y172873D02*
X118587Y172582D01*
X117346Y171754D01*
X116518Y170513D01*
X116227Y169050D01*
X116518Y167587D01*
X117346Y166346D01*
X118587Y165518D01*
X120050Y165227D01*
X121513Y165518D01*
X122754Y166346D01*
X123582Y167587D01*
X123873Y169050D01*
X123582Y170513D01*
X122754Y171754D01*
X121513Y172582D01*
X120050Y172873D01*
D02*
G37*
G36*
X250000Y172823D02*
X248537Y172532D01*
X247296Y171704D01*
X246468Y170463D01*
X246177Y169000D01*
X246468Y167537D01*
X247296Y166296D01*
X248537Y165468D01*
X250000Y165177D01*
X251463Y165468D01*
X252704Y166296D01*
X253532Y167537D01*
X253823Y169000D01*
X253532Y170463D01*
X252704Y171704D01*
X251463Y172532D01*
X250000Y172823D01*
D02*
G37*
G36*
X90000Y163823D02*
X88537Y163532D01*
X87296Y162704D01*
X86468Y161463D01*
X86177Y160000D01*
X86468Y158537D01*
X87296Y157296D01*
X88537Y156468D01*
X90000Y156177D01*
X91463Y156468D01*
X92704Y157296D01*
X93532Y158537D01*
X93823Y160000D01*
X93532Y161463D01*
X92704Y162704D01*
X91463Y163532D01*
X90000Y163823D01*
D02*
G37*
G36*
X122000Y159823D02*
X120537Y159532D01*
X119296Y158704D01*
X118468Y157463D01*
X118177Y156000D01*
X118468Y154537D01*
X119296Y153296D01*
X120537Y152468D01*
X122000Y152177D01*
X123463Y152468D01*
X124704Y153296D01*
X125532Y154537D01*
X125823Y156000D01*
X125532Y157463D01*
X124704Y158704D01*
X123463Y159532D01*
X122000Y159823D01*
D02*
G37*
G36*
X196000Y158073D02*
X194537Y157782D01*
X193296Y156954D01*
X192468Y155713D01*
X192177Y154250D01*
X192468Y152787D01*
X193296Y151546D01*
X194537Y150718D01*
X196000Y150427D01*
X197463Y150718D01*
X198704Y151546D01*
X199532Y152787D01*
X199823Y154250D01*
X199532Y155713D01*
X198704Y156954D01*
X197463Y157782D01*
X196000Y158073D01*
D02*
G37*
G36*
X98000Y153823D02*
X96537Y153532D01*
X95296Y152704D01*
X94468Y151463D01*
X94177Y150000D01*
X94468Y148537D01*
X95296Y147296D01*
X96537Y146468D01*
X98000Y146177D01*
X99463Y146468D01*
X100704Y147296D01*
X101532Y148537D01*
X101823Y150000D01*
X101532Y151463D01*
X100704Y152704D01*
X99463Y153532D01*
X98000Y153823D01*
D02*
G37*
G36*
X122000Y148823D02*
X120537Y148532D01*
X119296Y147704D01*
X118468Y146463D01*
X118177Y145000D01*
X118468Y143537D01*
X119296Y142296D01*
X120537Y141468D01*
X122000Y141177D01*
X123463Y141468D01*
X124704Y142296D01*
X125532Y143537D01*
X125823Y145000D01*
X125532Y146463D01*
X124704Y147704D01*
X123463Y148532D01*
X122000Y148823D01*
D02*
G37*
G36*
X90000Y143823D02*
X88537Y143532D01*
X87296Y142704D01*
X86468Y141463D01*
X86177Y140000D01*
X86468Y138537D01*
X87296Y137296D01*
X88537Y136468D01*
X90000Y136177D01*
X91463Y136468D01*
X92704Y137296D01*
X93532Y138537D01*
X93823Y140000D01*
X93532Y141463D01*
X92704Y142704D01*
X91463Y143532D01*
X90000Y143823D01*
D02*
G37*
G36*
X120050Y134773D02*
X118587Y134482D01*
X117346Y133654D01*
X116518Y132413D01*
X116227Y130950D01*
X116518Y129487D01*
X117346Y128246D01*
X118587Y127418D01*
X120050Y127127D01*
X121513Y127418D01*
X122754Y128246D01*
X123582Y129487D01*
X123873Y130950D01*
X123582Y132413D01*
X122754Y133654D01*
X121513Y134482D01*
X120050Y134773D01*
D02*
G37*
G36*
X346000Y133823D02*
X344537Y133532D01*
X343296Y132704D01*
X342468Y131463D01*
X342177Y130000D01*
X342468Y128537D01*
X343296Y127296D01*
X344537Y126468D01*
X346000Y126177D01*
X347463Y126468D01*
X348704Y127296D01*
X349532Y128537D01*
X349823Y130000D01*
X349532Y131463D01*
X348704Y132704D01*
X347463Y133532D01*
X346000Y133823D01*
D02*
G37*
G36*
X100000D02*
X98537Y133532D01*
X97296Y132704D01*
X96468Y131463D01*
X96177Y130000D01*
X96468Y128537D01*
X97296Y127296D01*
X98537Y126468D01*
X100000Y126177D01*
X101463Y126468D01*
X102704Y127296D01*
X103532Y128537D01*
X103823Y130000D01*
X103532Y131463D01*
X102704Y132704D01*
X101463Y133532D01*
X100000Y133823D01*
D02*
G37*
G36*
X90000Y123823D02*
X88537Y123532D01*
X87296Y122704D01*
X86468Y121463D01*
X86177Y120000D01*
X86468Y118537D01*
X87296Y117296D01*
X88537Y116468D01*
X90000Y116177D01*
X91463Y116468D01*
X92704Y117296D01*
X93532Y118537D01*
X93823Y120000D01*
X93532Y121463D01*
X92704Y122704D01*
X91463Y123532D01*
X90000Y123823D01*
D02*
G37*
G36*
X100000Y113823D02*
X98537Y113532D01*
X97296Y112704D01*
X96468Y111463D01*
X96177Y110000D01*
X96468Y108537D01*
X97296Y107296D01*
X98537Y106468D01*
X100000Y106177D01*
X101463Y106468D01*
X102704Y107296D01*
X103532Y108537D01*
X103823Y110000D01*
X103532Y111463D01*
X102704Y112704D01*
X101463Y113532D01*
X100000Y113823D01*
D02*
G37*
G36*
X90000Y103823D02*
X88537Y103532D01*
X87296Y102704D01*
X86468Y101463D01*
X86177Y100000D01*
X86468Y98537D01*
X87296Y97296D01*
X88537Y96468D01*
X90000Y96177D01*
X91463Y96468D01*
X92704Y97296D01*
X93532Y98537D01*
X93823Y100000D01*
X93532Y101463D01*
X92704Y102704D01*
X91463Y103532D01*
X90000Y103823D01*
D02*
G37*
G36*
X100000Y93823D02*
X98537Y93532D01*
X97296Y92704D01*
X96468Y91463D01*
X96177Y90000D01*
X96468Y88537D01*
X97296Y87296D01*
X98537Y86468D01*
X100000Y86177D01*
X101463Y86468D01*
X102704Y87296D01*
X103532Y88537D01*
X103823Y90000D01*
X103532Y91463D01*
X102704Y92704D01*
X101463Y93532D01*
X100000Y93823D01*
D02*
G37*
%LPD*%
D24*
X216000Y248000D02*
D03*
X130000Y348000D02*
D03*
Y324000D02*
D03*
Y296000D02*
D03*
X227000Y169000D02*
D03*
X274000D02*
D03*
X282000Y351000D02*
D03*
X293500Y362000D02*
D03*
X295500Y309000D02*
D03*
X280000Y272000D02*
D03*
M02*
